<svg width="200" height="200" viewBox="0 0 200 200" fill="none" xmlns="http://www.w3.org/2000/svg">
<path d="M176.332 86.943L176.6 87.0018H61.5056L97.6871 50.7405C99.4589 48.9702 100.431 46.572 100.431 44.0549C100.431 41.5378 99.4589 39.1564 97.6871 37.3819L92.0573 31.7492C90.2869 29.9789 87.9279 29 85.4122 29C82.8951 29 80.5347 29.9719 78.7643 31.7422L16.7422 93.7587C14.9649 95.536 13.993 97.9035 14 100.422C13.993 102.954 14.9649 105.323 16.7422 107.098L78.7643 169.12C80.5347 170.889 82.8937 171.862 85.4122 171.862C87.9279 171.862 90.2869 170.887 92.0573 169.12L97.6871 163.487C99.4589 161.72 100.431 159.359 100.431 156.842C100.431 154.326 99.4589 152.09 97.6871 150.322L61.0973 113.858H176.46C181.644 113.858 186 109.39 186 104.209V96.2422C186 91.0612 181.515 86.943 176.332 86.943Z" fill="#464646"/>
</svg>
