<svg width="200" height="200" viewBox="0 0 200 200" fill="none" xmlns="http://www.w3.org/2000/svg">
<path d="M86.943 23.6683L87.0018 23.3998V138.494L50.7405 102.313C48.9702 100.541 46.572 99.5693 44.0549 99.5693C41.5378 99.5693 39.1564 100.541 37.3819 102.313L31.7492 107.943C29.9789 109.713 29 112.072 29 114.588C29 117.105 29.9719 119.465 31.7422 121.236L93.7587 183.258C95.536 185.035 97.9035 186.007 100.422 186C102.954 186.007 105.323 185.035 107.098 183.258L169.12 121.236C170.889 119.465 171.862 117.106 171.862 114.588C171.862 112.072 170.887 109.713 169.12 107.943L163.487 102.313C161.72 100.541 159.359 99.5693 156.842 99.5693C154.326 99.5693 152.09 100.541 150.322 102.313L113.858 138.903L113.858 23.5397C113.858 18.3559 109.39 14 104.209 14H96.2422C91.0612 14 86.943 18.4845 86.943 23.6683Z" fill="#464646"/>
</svg>
