<svg width="198" height="174" viewBox="0 0 198 174" fill="none" xmlns="http://www.w3.org/2000/svg">
<path d="M175.332 73.943L175.6 74.0018H60.5056L96.6871 37.7405C98.4589 35.9702 99.4307 33.572 99.4307 31.0549C99.4307 28.5378 98.4589 26.1564 96.6871 24.3819L91.0573 18.7492C89.2869 16.9789 86.9279 16 84.4122 16C81.8951 16 79.5347 16.9719 77.7643 18.7422L15.7422 80.7587C13.9649 82.536 12.993 84.9035 13 87.4219C12.993 89.9544 13.9649 92.3232 15.7422 94.0978L77.7643 156.12C79.5347 157.889 81.8937 158.862 84.4122 158.862C86.9279 158.862 89.2869 157.887 91.0573 156.12L96.6871 150.487C98.4589 148.72 99.4307 146.359 99.4307 143.842C99.4307 141.326 98.4589 139.09 96.6871 137.322L60.0973 100.858H175.46C180.644 100.858 185 96.3897 185 91.2087V83.2422C185 78.0612 180.515 73.943 175.332 73.943Z" fill="#464646"/>
</svg>
