<svg width="163" height="192" viewBox="0 0 163 192" fill="none" xmlns="http://www.w3.org/2000/svg">
<path d="M67.943 19.6683L68.0018 19.3998V134.494L31.7405 98.3129C29.9702 96.5411 27.572 95.5693 25.0549 95.5693C22.5378 95.5693 20.1564 96.5411 18.3819 98.3129L12.7492 103.943C10.9789 105.713 10 108.072 10 110.588C10 113.105 10.9719 115.465 12.7422 117.236L74.7587 179.258C76.536 181.035 78.9035 182.007 81.422 182C83.9544 182.007 86.3232 181.035 88.0978 179.258L150.12 117.236C151.889 115.465 152.862 113.106 152.862 110.588C152.862 108.072 151.887 105.713 150.12 103.943L144.487 98.3129C142.72 96.5411 140.359 95.5693 137.842 95.5693C135.326 95.5693 133.09 96.5411 131.322 98.3129L94.8575 134.903L94.8575 19.5397C94.8575 14.3559 90.3897 9.99997 85.2087 9.99997H77.2422C72.0612 9.99997 67.943 14.4845 67.943 19.6683Z" fill="#464646"/>
</svg>
