<svg width="200" height="200" viewBox="0 0 200 200" fill="none" xmlns="http://www.w3.org/2000/svg">
<path d="M113.919 176.332L113.861 176.6V61.5056L150.122 97.6871C151.892 99.4589 154.29 100.431 156.807 100.431C159.324 100.431 161.706 99.4589 163.48 97.6871L169.113 92.0573C170.883 90.2869 171.862 87.9279 171.862 85.4122C171.862 82.8951 170.89 80.5347 169.12 78.7643L107.104 16.7422C105.326 14.9649 102.959 13.993 100.44 14C97.9079 13.993 95.5391 14.9649 93.7645 16.7422L31.7424 78.7643C29.9735 80.5347 29.0002 82.8937 29.0002 85.4122C29.0002 87.9279 29.9749 90.2869 31.7424 92.0573L37.3751 97.6871C39.1426 99.4589 41.5031 100.431 44.0202 100.431C46.5358 100.431 48.7718 99.4589 50.5408 97.6871L87.0048 61.0973L87.0048 176.46C87.0048 181.644 91.4726 186 96.6536 186H104.62C109.801 186 113.919 181.515 113.919 176.332Z" fill="#464646"/>
</svg>
