<svg width="200" height="200" viewBox="0 0 200 200" fill="none" xmlns="http://www.w3.org/2000/svg">
<path d="M23.7246 113.919L23.4545 113.86L139.218 113.86L102.826 150.122C101.044 151.892 100.067 154.29 100.067 156.807C100.067 159.324 101.044 161.706 102.826 163.48L108.489 169.113C110.27 170.883 112.642 171.862 115.173 171.862C117.704 171.862 120.079 170.89 121.859 169.12L184.242 107.103C186.029 105.326 187.007 102.959 187 100.44C187.007 97.9077 186.029 95.5388 184.242 93.7643L121.859 31.7422C120.079 29.9733 117.706 29 115.173 29C112.642 29 110.27 29.9747 108.489 31.7422L102.826 37.3749C101.044 39.1424 100.067 41.5029 100.067 44.0199C100.067 46.5356 101.044 48.7716 102.826 50.5405L139.629 87.0045L23.5952 87.0045C18.3813 87.0045 14 91.4723 14 96.6533V104.62C14 109.801 18.5107 113.919 23.7246 113.919Z" fill="#464646"/>
</svg>
