<svg width="163" height="192" viewBox="0 0 163 192" fill="none" xmlns="http://www.w3.org/2000/svg">
<path d="M91.919 170.332L91.8603 170.6V55.5056L128.122 91.6871C129.892 93.4589 132.29 94.4307 134.807 94.4307C137.324 94.4307 139.706 93.4589 141.48 91.6871L147.113 86.0573C148.883 84.2869 149.862 81.9279 149.862 79.4122C149.862 76.8951 148.89 74.5347 147.12 72.7643L85.1034 10.7422C83.326 8.96492 80.9586 7.99305 78.4401 8.00004C75.9077 7.99305 73.5388 8.96492 71.7643 10.7422L9.74219 72.7643C7.97325 74.5347 6.99998 76.8937 6.99998 79.4122C6.99998 81.9279 7.97464 84.2869 9.74219 86.0573L15.3748 91.6871C17.1424 93.4589 19.5028 94.4307 22.0199 94.4307C24.5356 94.4307 26.7716 93.4589 28.5405 91.6871L65.0045 55.0973L65.0045 170.46C65.0045 175.644 69.4723 180 74.6533 180H82.6199C87.8008 180 91.919 175.515 91.919 170.332Z" fill="#464646"/>
</svg>
