<svg width="198" height="174" viewBox="0 0 198 174" fill="none" xmlns="http://www.w3.org/2000/svg">
<path d="M22.7246 100.919L22.4545 100.861L138.218 100.861L101.826 137.122C100.044 138.892 99.0668 141.29 99.0668 143.807C99.0668 146.324 100.044 148.706 101.826 150.48L107.489 156.113C109.27 157.883 111.642 158.862 114.173 158.862C116.704 158.862 119.079 157.89 120.859 156.12L183.242 94.1036C185.029 92.3263 186.007 89.9588 186 87.4404C186.007 84.9079 185.029 82.5391 183.242 80.7645L120.859 18.7424C119.079 16.9735 116.706 16.0002 114.173 16.0002C111.642 16.0002 109.27 16.9749 107.489 18.7424L101.826 24.3751C100.044 26.1427 99.0668 28.5031 99.0668 31.0202C99.0668 33.5359 100.044 35.7719 101.826 37.5408L138.629 74.0048L22.5952 74.0048C17.3813 74.0048 13 78.4726 13 83.6536V91.6201C13 96.8011 17.5107 100.919 22.7246 100.919Z" fill="#464646"/>
</svg>
