<svg width="199" height="174" viewBox="0 0 199 174" fill="none" xmlns="http://www.w3.org/2000/svg">
<path fill-rule="evenodd" clip-rule="evenodd" d="M156.675 52.9608H178.793C188.463 52.9608 195.562 62.0166 193.272 71.3975L173.509 152.394C171.267 161.582 163.096 168 153.638 168H43.0668C33.6086 168 25.4372 161.582 23.1956 152.394L3.43238 71.3975C1.13973 62.0042 8.25461 52.9608 17.9111 52.9608H40.0299L58.2522 13.8835C65.3033 -1.23781 87.3221 -0.340251 93.0535 15.4031C94.7755 20.1349 94.552 25.2541 92.424 29.818L81.6323 52.9608H115.073L104.281 29.818C99.877 20.3738 103.956 9.16849 113.4 4.76505C122.821 0.372473 134.059 4.46249 138.453 13.8835L156.675 52.9608ZM121.357 14.9971C116.368 14.9971 113.039 20.213 115.154 24.7484L128.31 52.9612H143.437L127.579 18.9543C126.418 16.4634 123.94 14.9971 121.357 14.9971ZM69.1254 18.9545C70.7229 15.5288 74.8092 14.0415 78.2348 15.639C81.6605 17.2366 83.1478 21.3228 81.5506 24.7485L68.3947 52.9613H53.2677L69.1254 18.9545ZM161.853 149.551L181.617 68.5542C182.063 66.7253 180.684 64.959 178.793 64.959H17.911C16.0211 64.959 14.6413 66.7253 15.0879 68.5542L34.8511 149.551C35.7783 153.35 39.1563 156.003 43.0667 156.003H153.638C157.548 156.003 160.926 153.35 161.853 149.551Z" fill="#464646"/>
<path d="M98.3523 83.2544C95.0391 83.2544 92.3535 85.9403 92.3535 89.2531V131.706C92.3535 135.019 95.0391 137.705 98.3523 137.705C101.665 137.705 104.351 135.019 104.351 131.706V89.2531C104.351 85.94 101.665 83.2544 98.3523 83.2544V83.2544Z" fill="#464646"/>
<path d="M139.65 83.4C136.417 82.6779 133.209 84.7126 132.487 87.9455L122.996 130.399C122.16 134.139 125.004 137.707 128.856 137.707C131.603 137.707 134.08 135.808 134.705 133.016L144.195 90.5628C144.918 87.3299 142.883 84.1228 139.65 83.4Z" fill="#464646"/>
<path d="M64.2176 87.9459C63.4944 84.7125 60.2888 82.6771 57.0548 83.4003C53.8218 84.1232 51.7867 87.3302 52.5096 90.5632L62.0003 133.016C62.6246 135.809 65.1017 137.708 67.8491 137.708C71.6969 137.708 74.5456 134.142 73.7087 130.399L64.2176 87.9459Z" fill="#464646"/>
</svg>
