<svg width="200" height="200" viewBox="0 0 200 200" fill="none" xmlns="http://www.w3.org/2000/svg">
<path fill-rule="evenodd" clip-rule="evenodd" d="M158.675 67.9608H180.793C190.463 67.9608 197.562 77.0166 195.272 86.3975L175.509 167.394C173.267 176.582 165.096 183 155.638 183H45.0668C35.6086 183 27.4372 176.582 25.1956 167.394L5.43238 86.3975C3.13973 77.0042 10.2546 67.9608 19.9111 67.9608H42.0299L60.2522 28.8835C67.3033 13.7622 89.3221 14.6597 95.0535 30.4031C96.7755 35.1349 96.552 40.2541 94.424 44.818L83.6323 67.9608H117.073L106.281 44.818C101.877 35.3738 105.956 24.1685 115.4 19.765C124.821 15.3725 136.059 19.4625 140.453 28.8835L158.675 67.9608ZM123.357 29.9971C118.368 29.9971 115.039 35.213 117.154 39.7484L130.31 67.9612H145.437L129.579 33.9543C128.418 31.4634 125.94 29.9971 123.357 29.9971ZM71.1254 33.9545C72.7229 30.5288 76.8092 29.0415 80.2348 30.639C83.6605 32.2366 85.1478 36.3228 83.5506 39.7485L70.3947 67.9613H55.2677L71.1254 33.9545ZM163.853 164.551L183.617 83.5542C184.063 81.7253 182.684 79.959 180.793 79.959H19.911C18.0211 79.959 16.6413 81.7253 17.0879 83.5542L36.8511 164.551C37.7783 168.35 41.1563 171.003 45.0667 171.003H155.638C159.548 171.003 162.926 168.35 163.853 164.551Z" fill="#464646"/>
<path d="M100.352 98.2544C97.0391 98.2544 94.3535 100.94 94.3535 104.253V146.706C94.3535 150.019 97.0391 152.705 100.352 152.705C103.665 152.705 106.351 150.019 106.351 146.706V104.253C106.351 100.94 103.665 98.2544 100.352 98.2544V98.2544Z" fill="#464646"/>
<path d="M141.65 98.4C138.417 97.6779 135.209 99.7126 134.487 102.946L124.996 145.399C124.16 149.139 127.004 152.707 130.856 152.707C133.603 152.707 136.08 150.808 136.705 148.016L146.195 105.563C146.918 102.33 144.883 99.1228 141.65 98.4Z" fill="#464646"/>
<path d="M66.2176 102.946C65.4944 99.7125 62.2888 97.6771 59.0548 98.4003C55.8218 99.1232 53.7867 102.33 54.5096 105.563L64.0003 148.016C64.6246 150.809 67.1017 152.708 69.8491 152.708C73.6969 152.708 76.5456 149.142 75.7087 145.399L66.2176 102.946Z" fill="#464646"/>
</svg>
