<svg width="151" height="429" viewBox="0 0 151 429" fill="none" xmlns="http://www.w3.org/2000/svg">
<rect width="151" height="429" fill="#F2F2F2"/>
<rect width="151" height="429" fill="white"/>
<path d="M80.652 53.092C82.4707 51.728 83.8967 50.0953 84.93 48.194C86.0047 46.334 86.542 44.5153 86.542 42.738C86.542 40.7953 86.046 39.0387 85.054 37.468C84.062 35.8973 82.6773 34.6573 80.9 33.748C79.164 32.8387 77.2007 32.384 75.01 32.384C72.8193 32.384 70.8353 32.8387 69.058 33.748C67.322 34.6573 65.9373 35.8973 64.904 37.468C63.912 39.0387 63.416 40.7953 63.416 42.738C63.416 44.3913 63.8707 46.148 64.78 48.008C65.6893 49.9093 66.9293 51.604 68.5 53.092L60.564 60.532C58.0013 58.176 55.9553 55.324 54.426 51.976C52.8967 48.6693 52.132 45.3833 52.132 42.118C52.132 37.778 53.1033 33.8513 55.046 30.338C57.03 26.866 59.758 24.138 63.23 22.154C66.702 20.17 70.5873 19.178 74.886 19.178C79.102 19.178 82.9047 20.1907 86.294 22.216C89.7247 24.2413 92.4113 27.0313 94.354 30.586C96.2967 34.1407 97.268 38.1293 97.268 42.552C97.268 45.8173 96.5653 49.0827 95.16 52.348C93.7547 55.6133 91.874 58.3413 89.518 60.532L80.652 53.092ZM97.268 85.9345C97.268 90.3985 96.2967 94.4285 94.354 98.0245C92.4113 101.662 89.7247 104.493 86.294 106.519C82.9047 108.585 79.0813 109.619 74.824 109.619C70.5253 109.619 66.64 108.585 63.168 106.519C59.7373 104.493 57.03 101.662 55.046 98.0245C53.1033 94.4285 52.132 90.3985 52.132 85.9345C52.132 81.4292 53.1033 77.3785 55.046 73.7825C57.03 70.1865 59.7373 67.3552 63.168 65.2885C66.64 63.2632 70.5253 62.2505 74.824 62.2505C79.0813 62.2505 82.9047 63.2632 86.294 65.2885C89.7247 67.3552 92.4113 70.1865 94.354 73.7825C96.2967 77.3785 97.268 81.4292 97.268 85.9345ZM86.542 86.1205C86.542 84.2192 86.0253 82.4419 84.992 80.7885C83.9587 79.1765 82.5327 77.8745 80.714 76.8825C78.9367 75.9319 76.9527 75.4565 74.762 75.4565C72.5713 75.4565 70.5667 75.9319 68.748 76.8825C66.9293 77.8745 65.4827 79.1765 64.408 80.7885C63.3747 82.4419 62.858 84.2192 62.858 86.1205C62.858 87.9805 63.3747 89.6959 64.408 91.2665C65.4827 92.8785 66.9087 94.1392 68.686 95.0485C70.5047 95.9579 72.53 96.4125 74.762 96.4125C76.9527 96.4125 78.9367 95.9579 80.714 95.0485C82.5327 94.1392 83.9587 92.8992 84.992 91.3285C86.0253 89.7579 86.542 88.0219 86.542 86.1205ZM82.45 146.619C83.814 144.305 84.9713 141.763 85.922 138.993C86.8727 136.224 87.348 133.951 87.348 132.173C87.348 131.057 87.1207 130.169 86.666 129.507C86.2527 128.887 85.6327 128.577 84.806 128.577C83.6487 128.577 82.7393 129.197 82.078 130.437C81.458 131.677 80.776 133.641 80.032 136.327C79.164 139.386 78.2753 141.907 77.366 143.891C76.498 145.875 75.1547 147.591 73.336 149.037C71.5173 150.525 69.12 151.269 66.144 151.269C63.1267 151.269 60.564 150.463 58.456 148.851C56.3893 147.281 54.8393 145.131 53.806 142.403C52.7727 139.717 52.256 136.699 52.256 133.351C52.256 129.631 52.876 125.891 54.116 122.129C55.3973 118.409 57.1333 115.185 59.324 112.457L69.12 117.293C67.2187 119.484 65.6067 122.15 64.284 125.291C63.0027 128.474 62.362 131.202 62.362 133.475C62.362 134.881 62.6307 135.976 63.168 136.761C63.7053 137.547 64.47 137.939 65.462 137.939C66.6607 137.939 67.57 137.299 68.19 136.017C68.8513 134.736 69.5333 132.752 70.236 130.065C71.0213 127.048 71.8273 124.547 72.654 122.563C73.522 120.579 74.8447 118.864 76.622 117.417C78.3993 115.971 80.7347 115.247 83.628 115.247C86.4387 115.247 88.8773 115.991 90.944 117.479C93.052 118.967 94.664 121.055 95.78 123.741C96.896 126.469 97.454 129.631 97.454 133.227C97.454 136.493 96.9787 139.737 96.028 142.961C95.1187 146.185 93.8993 148.996 92.37 151.393L82.45 146.619ZM96.462 153.644L96.462 191.836L86.17 191.836L86.17 179.188L53 179.188L53 166.23L86.17 166.23L86.17 153.644L96.462 153.644ZM53 223.756L59.944 221.214L59.944 203.668L53 201.064L53 187.796L96.462 206.334L96.462 219.602L53 237.52L53 223.756ZM69.368 207.264L69.368 217.804L83.566 212.596L69.368 207.264ZM53 281.114L64.718 275.348L64.718 268.528L53 268.528L53 255.632L96.462 255.632L96.462 275.906C96.462 281.734 95.1187 286.24 92.432 289.422C89.7453 292.646 85.9427 294.258 81.024 294.258C77.8413 294.258 75.072 293.618 72.716 292.336C70.4013 291.096 68.562 289.298 67.198 286.942L53 295.746L53 281.114ZM74.638 268.528L74.638 275.906C74.638 277.849 75.1547 279.337 76.188 280.37C77.2213 281.445 78.7093 281.982 80.652 281.982C82.5533 281.982 84 281.445 84.992 280.37C86.0253 279.337 86.542 277.849 86.542 275.906L86.542 268.528L74.638 268.528ZM96.462 301.49L96.462 314.386L53 314.386L53 301.49L96.462 301.49ZM80.652 354.078C82.4707 352.714 83.8967 351.082 84.93 349.18C86.0047 347.32 86.542 345.502 86.542 343.724C86.542 341.782 86.046 340.025 85.054 338.454C84.062 336.884 82.6773 335.644 80.9 334.734C79.164 333.825 77.2007 333.37 75.01 333.37C72.8193 333.37 70.8353 333.825 69.058 334.734C67.322 335.644 65.9373 336.884 64.904 338.454C63.912 340.025 63.416 341.782 63.416 343.724C63.416 345.378 63.8707 347.134 64.78 348.994C65.6893 350.896 66.9293 352.59 68.5 354.078L60.564 361.518C58.0013 359.162 55.9553 356.31 54.426 352.962C52.8967 349.656 52.132 346.37 52.132 343.104C52.132 338.764 53.1033 334.838 55.046 331.324C57.03 327.852 59.758 325.124 63.23 323.14C66.702 321.156 70.5873 320.164 74.886 320.164C79.102 320.164 82.9047 321.177 86.294 323.202C89.7247 325.228 92.4113 328.018 94.354 331.572C96.2967 335.127 97.268 339.116 97.268 343.538C97.268 346.804 96.5653 350.069 95.16 353.334C93.7547 356.6 91.874 359.328 89.518 361.518L80.652 354.078ZM53 397.644L59.944 395.102L59.944 377.556L53 374.952L53 361.684L96.462 380.222L96.462 393.49L53 411.408L53 397.644ZM69.368 381.152L69.368 391.692L83.566 386.484L69.368 381.152Z" fill="white"/>
</svg>
