<svg width="140" height="174" viewBox="0 0 140 174" fill="none" xmlns="http://www.w3.org/2000/svg">
<path d="M91.4261 65.8672C89.4671 65.8672 87.8794 67.4549 87.8794 69.4139V136.446C87.8794 138.404 89.4671 139.993 91.4261 139.993C93.3851 139.993 94.9728 138.404 94.9728 136.446V69.4139C94.9728 67.4549 93.3851 65.8672 91.4261 65.8672Z" fill="black"/>
<path d="M49.5743 65.8672C47.6153 65.8672 46.0276 67.4549 46.0276 69.4139V136.446C46.0276 138.404 47.6153 139.993 49.5743 139.993C51.5333 139.993 53.1209 138.404 53.1209 136.446V69.4139C53.1209 67.4549 51.5333 65.8672 49.5743 65.8672Z" fill="black"/>
<path fill-rule="evenodd" clip-rule="evenodd" d="M19.0731 143.469V56.0862C12.4966 54.3406 8.23499 47.9871 9.11474 41.2387C9.99587 34.4917 15.744 29.4446 22.5492 29.4432H40.7079V25.0098C40.6871 21.2817 42.1612 17.7017 44.8004 15.0681C47.4397 12.4358 51.0251 10.97 54.7533 11.0005H86.2467C89.9749 10.97 93.5603 12.4358 96.1996 15.0681C98.8388 17.7017 100.313 21.2817 100.292 25.0098V29.4432H118.451C125.256 29.4446 131.004 34.4917 131.885 41.2387C132.765 47.9871 128.503 54.3406 121.927 56.0862V143.469C121.927 148.634 120.033 153.484 116.725 156.964C113.433 160.454 108.85 162.435 104.052 162.444H36.9479C32.1515 162.435 27.5686 160.454 24.2754 156.964C20.967 153.484 19.0731 148.634 19.0731 143.469ZM36.9482 155.349H104.052C110.116 155.349 114.834 150.14 114.834 143.468V56.3966H26.1668V143.468C26.1668 150.14 30.8842 155.349 36.9482 155.349ZM47.8007 25.0112C47.7771 23.1644 48.5031 21.3869 49.8137 20.0832C51.1229 18.7796 52.9046 18.0633 54.7527 18.0952H86.2461C88.0943 18.0633 89.8759 18.7796 91.1851 20.0832C92.4958 21.3855 93.2217 23.1644 93.1982 25.0112V29.4445H47.8007V25.0112ZM118.45 36.5362H22.5484C19.0225 36.5362 16.1644 39.3943 16.1644 42.9202C16.1644 46.4461 19.0225 49.3042 22.5484 49.3042H118.45C121.976 49.3042 124.834 46.4461 124.834 42.9202C124.834 39.3943 121.976 36.5362 118.45 36.5362Z" fill="black"/>
<path d="M70.5 65.8672C68.5411 65.8672 66.9534 67.4549 66.9534 69.4139V136.446C66.9534 138.404 68.5411 139.993 70.5 139.993C72.459 139.993 74.0467 138.404 74.0467 136.446V69.4139C74.0467 67.4549 72.459 65.8672 70.5 65.8672Z" fill="black"/>
</svg>
