<svg width="198" height="198" viewBox="0 0 198 198" fill="none" xmlns="http://www.w3.org/2000/svg">
<path d="M119.426 77.8674C117.467 77.8674 115.879 79.4551 115.879 81.4141V148.446C115.879 150.404 117.467 151.993 119.426 151.993C121.385 151.993 122.973 150.404 122.973 148.446V81.4141C122.973 79.4551 121.385 77.8674 119.426 77.8674Z" fill="black"/>
<path d="M77.5745 77.8674C75.6155 77.8674 74.0278 79.4551 74.0278 81.4141V148.446C74.0278 150.404 75.6155 151.993 77.5745 151.993C79.5335 151.993 81.1212 150.404 81.1212 148.446V81.4141C81.1212 79.4551 79.5335 77.8674 77.5745 77.8674Z" fill="black"/>
<path fill-rule="evenodd" clip-rule="evenodd" d="M47.0731 155.469V68.0862C40.4966 66.3406 36.235 59.9871 37.1147 53.2387C37.9959 46.4917 43.744 41.4446 50.5492 41.4432H68.7079V37.0098C68.6871 33.2817 70.1612 29.7017 72.8004 27.0681C75.4397 24.4358 79.0251 22.97 82.7533 23.0005H114.247C117.975 22.97 121.56 24.4358 124.2 27.0681C126.839 29.7017 128.313 33.2817 128.292 37.0098V41.4432H146.451C153.256 41.4446 159.004 46.4917 159.885 53.2387C160.765 59.9871 156.503 66.3406 149.927 68.0862V155.469C149.927 160.634 148.033 165.484 144.725 168.964C141.433 172.454 136.85 174.435 132.052 174.444H64.9479C60.1515 174.435 55.5686 172.454 52.2754 168.964C48.967 165.484 47.0731 160.634 47.0731 155.469ZM64.9482 167.349H132.052C138.116 167.349 142.834 162.14 142.834 155.468V68.3966H54.1668V155.468C54.1668 162.14 58.8842 167.349 64.9482 167.349ZM75.8007 37.0112C75.7771 35.1644 76.5031 33.3869 77.8137 32.0832C79.1229 30.7796 80.9046 30.0633 82.7527 30.0952H114.246C116.094 30.0633 117.876 30.7796 119.185 32.0832C120.496 33.3855 121.222 35.1644 121.198 37.0112V41.4445H75.8007V37.0112ZM146.45 48.5362H50.5484C47.0225 48.5362 44.1644 51.3943 44.1644 54.9202C44.1644 58.4461 47.0225 61.3042 50.5484 61.3042H146.45C149.976 61.3042 152.834 58.4461 152.834 54.9202C152.834 51.3943 149.976 48.5362 146.45 48.5362Z" fill="black"/>
<path d="M98.5003 77.8674C96.5413 77.8674 94.9536 79.4551 94.9536 81.4141V148.446C94.9536 150.404 96.5413 151.993 98.5003 151.993C100.459 151.993 102.047 150.404 102.047 148.446V81.4141C102.047 79.4551 100.459 77.8674 98.5003 77.8674Z" fill="black"/>
</svg>
