<svg width="200" height="200" viewBox="0 0 200 200" fill="none" xmlns="http://www.w3.org/2000/svg">
<path d="M86.943 95.9307L87.0018 95.6622V95.9251L50.7405 59.7435C48.9702 57.9718 46.572 56.9999 44.0549 56.9999C41.5378 56.9999 39.1564 57.9718 37.3819 59.7435L31.7492 65.3734C29.9789 67.1437 29 69.5028 29 72.0185C29 74.5355 29.9719 76.896 31.7422 78.6663L93.7587 140.688C95.536 142.466 97.9035 143.438 100.422 143.431C102.954 143.438 105.323 142.466 107.098 140.688L169.12 78.6663C170.889 76.896 171.862 74.5369 171.862 72.0185C171.862 69.5028 170.887 67.1437 169.12 65.3734L163.487 59.7435C161.72 57.9718 159.359 56.9999 156.842 56.9999C154.326 56.9999 152.09 57.9718 150.322 59.7435L113.858 96.3334C107.805 102.705 113.858 96.3334 109 101.431L101.5 109.431C96.5 104.931 92 100.931 86.943 95.9307Z" fill="#464646"/>
</svg>
