<svg width="163" height="107" viewBox="0 0 163 107" fill="none" xmlns="http://www.w3.org/2000/svg">
<path d="M67.943 48.9307L68.0018 48.6622V48.9251L31.7405 12.7435C29.9702 10.9718 27.572 9.99992 25.0549 9.99992C22.5378 9.99992 20.1564 10.9718 18.3819 12.7435L12.7492 18.3734C10.9789 20.1437 10 22.5028 10 25.0185C10 27.5355 10.9719 29.896 12.7422 31.6663L74.7587 93.6884C76.536 95.4657 78.9035 96.4376 81.422 96.4306C83.9544 96.4376 86.3232 95.4657 88.0978 93.6884L150.12 31.6663C151.889 29.896 152.862 27.5369 152.862 25.0185C152.862 22.5028 151.887 20.1437 150.12 18.3734L144.487 12.7435C142.72 10.9718 140.359 9.99992 137.842 9.99992C135.326 9.99992 133.09 10.9718 131.322 12.7435L94.8575 49.3334C88.8052 55.7051 94.8575 49.3334 90 54.4307L82.5 62.4307C77.5 57.9307 73 53.9307 67.943 48.9307Z" fill="#464646"/>
</svg>
