<svg width="198" height="198" viewBox="0 0 198 198" fill="none" xmlns="http://www.w3.org/2000/svg">
<g filter="url(#filter0_d)">
<path fill-rule="evenodd" clip-rule="evenodd" d="M129.566 24.5608C138.329 15.8131 152.52 15.8131 161.283 24.5608L173.439 36.6721C182.187 45.4339 182.187 59.6247 173.439 68.3879L80.9846 160.843C80.9529 160.907 80.899 160.947 80.8536 160.981L80.8535 160.982L80.8534 160.982C80.8345 160.996 80.8172 161.009 80.8036 161.022C80.8036 161.049 80.7873 161.059 80.7645 161.074C80.761 161.076 80.7574 161.078 80.7536 161.081C80.7496 161.083 80.7454 161.086 80.7411 161.089C80.7327 161.096 80.724 161.103 80.7152 161.112C80.6481 161.157 80.5807 161.213 80.5134 161.268L80.5133 161.268L80.5132 161.268C80.4454 161.325 80.3779 161.381 80.311 161.425C80.2448 161.469 80.1676 161.514 80.0905 161.558L80.0903 161.558C80.0107 161.604 79.9311 161.65 79.8634 161.696C79.8381 161.72 79.8073 161.735 79.7722 161.739C79.6473 161.818 79.5112 161.878 79.3695 161.92C79.3537 161.935 79.3433 161.945 79.3347 161.951C79.3286 161.956 79.3234 161.959 79.3179 161.961C79.313 161.962 79.3079 161.963 79.3016 161.963C79.2956 161.964 79.2885 161.964 79.2796 161.964L22.9357 180.76C22.4699 180.9 21.9872 180.976 21.5002 180.984C20.3089 180.989 19.1639 180.52 18.3149 179.682C17.1067 178.491 16.6886 176.713 17.2386 175.108L35.99 118.72C35.99 118.697 36.0012 118.685 36.0123 118.674C36.023 118.663 36.0335 118.652 36.0335 118.631C36.0557 118.566 36.0776 118.512 36.0993 118.458C36.1229 118.399 36.1463 118.341 36.1696 118.271C36.1922 118.248 36.2035 118.225 36.2146 118.203C36.2256 118.181 36.2364 118.159 36.258 118.137C36.3052 118.067 36.3396 118.009 36.3743 117.951C36.4066 117.897 36.4392 117.842 36.4825 117.777C36.4825 117.755 36.4941 117.744 36.5057 117.732C36.5173 117.721 36.5288 117.71 36.5288 117.688C36.5737 117.619 36.6305 117.551 36.6873 117.483L36.6873 117.483C36.7424 117.417 36.7975 117.351 36.8418 117.285C36.8706 117.285 36.8815 117.267 36.896 117.243C36.9049 117.228 36.9151 117.211 36.9316 117.195L37.1112 117.014L121.626 32.5438L129.566 24.5608ZM46.6216 120.202L77.8435 151.422L155.988 73.2779L124.766 42.0574L46.6216 120.202ZM42.2243 128.499L69.5003 155.774L28.5428 169.411L42.2243 128.499ZM162.36 66.9094L167.115 62.1089C172.352 56.858 172.372 48.3643 167.159 43.0882L154.958 30.8871C149.704 25.639 141.191 25.639 135.938 30.8871L131.136 35.6861L162.36 66.9094Z" fill="black"/>
</g>
<defs>
<filter id="filter0_d" x="13" y="18" width="171" height="170.985" filterUnits="userSpaceOnUse" color-interpolation-filters="sRGB">
<feFlood flood-opacity="0" result="BackgroundImageFix"/>
<feColorMatrix in="SourceAlpha" type="matrix" values="0 0 0 0 0 0 0 0 0 0 0 0 0 0 0 0 0 0 127 0"/>
<feOffset dy="4"/>
<feGaussianBlur stdDeviation="2"/>
<feColorMatrix type="matrix" values="0 0 0 0 0 0 0 0 0 0 0 0 0 0 0 0 0 0 0.25 0"/>
<feBlend mode="normal" in2="BackgroundImageFix" result="effect1_dropShadow"/>
<feBlend mode="normal" in="SourceGraphic" in2="effect1_dropShadow" result="shape"/>
</filter>
</defs>
</svg>
