<svg width="187" height="174" viewBox="0 0 187 174" fill="none" xmlns="http://www.w3.org/2000/svg">
<g clip-path="url(#clip0)">
<g filter="url(#filter0_d)">
<path fill-rule="evenodd" clip-rule="evenodd" d="M121.566 11.5608C130.329 2.81307 144.52 2.81307 153.283 11.5608L165.439 23.6721C174.187 32.4339 174.187 46.6247 165.439 55.3879L72.9846 147.843C72.9529 147.907 72.899 147.947 72.8536 147.981L72.8535 147.982L72.8534 147.982C72.8345 147.996 72.8172 148.009 72.8036 148.022C72.8036 148.049 72.7873 148.059 72.7645 148.074C72.761 148.076 72.7574 148.078 72.7536 148.081C72.7496 148.083 72.7454 148.086 72.7411 148.089C72.7327 148.096 72.724 148.103 72.7152 148.112C72.6481 148.157 72.5807 148.213 72.5134 148.268L72.5133 148.268L72.5132 148.268C72.4454 148.325 72.3779 148.381 72.311 148.425C72.2448 148.469 72.1676 148.514 72.0905 148.558L72.0903 148.558C72.0107 148.604 71.9311 148.65 71.8634 148.696C71.8381 148.72 71.8073 148.735 71.7722 148.739C71.6473 148.818 71.5112 148.878 71.3695 148.92C71.3537 148.935 71.3433 148.945 71.3347 148.951C71.3286 148.956 71.3234 148.959 71.3179 148.961C71.313 148.962 71.3079 148.963 71.3016 148.963C71.2956 148.964 71.2885 148.964 71.2796 148.964L14.9357 167.76C14.4699 167.9 13.9872 167.976 13.5002 167.984C12.3089 167.989 11.1639 167.52 10.3149 166.682C9.10673 165.491 8.68856 163.713 9.23863 162.108L27.99 105.72C27.99 105.697 28.0012 105.685 28.0123 105.674C28.023 105.663 28.0335 105.652 28.0335 105.631C28.0557 105.566 28.0776 105.512 28.0993 105.458C28.1229 105.399 28.1463 105.341 28.1696 105.271C28.1922 105.248 28.2035 105.225 28.2146 105.203C28.2256 105.181 28.2364 105.159 28.258 105.137C28.3052 105.067 28.3396 105.009 28.3743 104.951C28.4066 104.897 28.4392 104.842 28.4825 104.777C28.4825 104.755 28.4941 104.744 28.5057 104.732C28.5173 104.721 28.5288 104.71 28.5288 104.688C28.5737 104.619 28.6305 104.551 28.6873 104.483L28.6873 104.483C28.7424 104.417 28.7975 104.351 28.8418 104.285C28.8706 104.285 28.8815 104.267 28.896 104.243C28.9049 104.228 28.9151 104.211 28.9316 104.195L29.1112 104.014L113.626 19.5438L121.566 11.5608ZM38.6216 107.202L69.8435 138.422L147.988 60.2779L116.766 29.0574L38.6216 107.202ZM34.2243 115.499L61.5003 142.774L20.5428 156.411L34.2243 115.499ZM154.36 53.9094L159.115 49.1089C164.352 43.858 164.372 35.3643 159.159 30.0882L146.958 17.8871C141.704 12.639 133.191 12.639 127.938 17.8871L123.136 22.6861L154.36 53.9094Z" fill="black"/>
</g>
</g>
<defs>
<filter id="filter0_d" x="5" y="5" width="171" height="170.985" filterUnits="userSpaceOnUse" color-interpolation-filters="sRGB">
<feFlood flood-opacity="0" result="BackgroundImageFix"/>
<feColorMatrix in="SourceAlpha" type="matrix" values="0 0 0 0 0 0 0 0 0 0 0 0 0 0 0 0 0 0 127 0"/>
<feOffset dy="4"/>
<feGaussianBlur stdDeviation="2"/>
<feColorMatrix type="matrix" values="0 0 0 0 0 0 0 0 0 0 0 0 0 0 0 0 0 0 0.25 0"/>
<feBlend mode="normal" in2="BackgroundImageFix" result="effect1_dropShadow"/>
<feBlend mode="normal" in="SourceGraphic" in2="effect1_dropShadow" result="shape"/>
</filter>
<clipPath id="clip0">
<rect width="187" height="174" fill="white"/>
</clipPath>
</defs>
</svg>
