<svg width="267" height="267" viewBox="0 0 267 267" fill="none" xmlns="http://www.w3.org/2000/svg">
<rect width="267" height="267" fill="#F2F2F2"/>
<rect width="267" height="267" fill="white"/>
<path d="M140.669 225.091L84.7347 169.156C83.1938 167.615 80.696 167.615 79.1556 169.156C77.6148 170.697 77.6148 173.194 79.1556 174.735L135.09 230.67C135.86 231.44 136.87 231.826 137.88 231.826C138.889 231.826 139.899 231.44 140.669 230.67C142.21 229.129 142.21 226.631 140.669 225.091Z" fill="#464646" stroke="#464646" stroke-width="3"/>
<path fill-rule="evenodd" clip-rule="evenodd" d="M230.656 57.3332C240.563 57.3332 249.878 61.2958 256.884 68.4911C261.039 72.7587 261.039 79.7013 256.884 83.9668L218.49 123.398C212.596 129.452 209.35 137.5 209.35 146.061C209.35 156.899 205.241 167.088 197.779 174.752C196.969 175.584 195.907 176 194.845 176C193.783 176 192.721 175.584 191.911 174.752C190.29 173.087 190.29 170.389 191.911 168.724C197.805 162.67 201.051 154.622 201.051 146.062C201.051 135.223 205.16 125.034 212.622 117.371L231.002 98.494C227.894 89.7199 229.94 79.848 236.511 73.1002L241.468 68.0085C238.079 66.5987 234.423 65.8557 230.655 65.8557C222.964 65.8557 215.733 68.9316 210.295 74.5172L179.891 105.743C179.082 106.575 178.019 106.991 176.957 106.991C175.895 106.991 174.833 106.574 174.023 105.743C172.402 104.079 172.402 101.38 174.023 99.7156L179.449 94.1427L171.879 86.3678C171.248 90.5994 169.353 94.6695 166.187 97.9216C162.357 101.855 157.264 104.022 151.847 104.022C149.4 104.022 147.022 103.576 144.794 102.729C144.623 107.818 142.654 112.855 138.88 116.731C135.103 120.61 130.192 122.632 125.233 122.804C127.893 130.201 126.34 138.845 120.566 144.776C116.736 148.709 111.643 150.876 106.226 150.876C100.81 150.877 95.717 148.71 91.887 144.777L33.4598 84.7697C29.3124 80.5097 22.5635 80.5097 18.4151 84.7697C16.4065 86.8332 15.2996 89.5773 15.2996 92.4954C15.2996 95.414 16.406 98.1576 18.4151 100.222L30.9866 113.133L38.032 105.897C39.6523 104.232 42.2797 104.232 43.9005 105.897C45.5212 107.561 45.5212 110.259 43.9005 111.924L36.855 119.16L57.2689 140.126L64.3144 132.89C65.9347 131.225 68.562 131.225 70.1828 132.89C71.8036 134.554 71.8036 137.252 70.1828 138.917L63.1374 146.153L72.9288 156.209C74.5495 157.873 74.5495 160.571 72.9288 162.236C72.1189 163.068 71.0565 163.485 69.9945 163.485C68.9326 163.485 67.8702 163.068 67.0603 162.236L12.5467 106.249C8.96965 102.575 7 97.6912 7 92.4954C7 87.3006 8.96965 82.4159 12.5472 78.7416C19.9307 71.158 31.9452 71.158 39.3292 78.7416L58.5656 98.4981C59.1961 94.2666 61.0911 90.1964 64.2576 86.9443C68.3575 82.7341 73.79 80.7122 79.1732 80.868C77.3943 73.932 79.1411 66.2317 84.4259 60.804C88.2565 56.8704 93.3486 54.7034 98.7654 54.7034C100.544 54.7034 102.286 54.9419 103.962 55.3946C103.814 49.8704 105.782 44.2971 109.878 40.0904C117.786 31.9699 130.651 31.9699 138.558 40.0904L185.319 88.1157L204.427 68.4911C211.432 61.2958 220.747 57.3332 230.656 57.3332ZM97.7561 138.75C102.427 143.547 110.028 143.547 114.698 138.75C119.369 133.952 119.369 126.146 114.698 121.35L110.202 116.732L87.0683 92.9727C82.3977 88.1758 74.7973 88.1758 70.1262 92.9727C65.4561 97.7691 65.4556 105.572 70.1232 110.37L94.562 135.469L94.5649 135.472L97.7561 138.75ZM160.318 91.8948C158.055 94.2186 155.047 95.498 151.848 95.498C148.648 95.498 145.639 94.2181 143.377 91.8948L133.101 81.3418C131.481 79.6772 128.853 79.6772 127.233 81.3418C125.612 83.0064 125.612 85.7048 127.233 87.3689L133.012 93.3041C137.683 98.101 137.683 105.907 133.012 110.703C128.341 115.501 120.741 115.501 116.07 110.703L92.9366 86.9446L90.2945 84.231C85.6238 79.4341 85.6238 71.6283 90.2945 66.8319C92.5571 64.508 95.5655 63.2286 98.765 63.2286C101.965 63.2286 104.973 64.5086 107.236 66.8319L109.874 69.5409L109.876 69.5433L109.878 69.546C109.879 69.5465 109.88 69.5475 109.881 69.548L119.21 79.1286C120.83 80.7932 123.458 80.7932 125.078 79.1286C126.699 77.464 126.699 74.7661 125.078 73.1015L115.744 63.5149C111.077 58.7175 111.078 50.9146 115.747 46.1188C120.418 41.3219 128.018 41.3219 132.688 46.1188L160.319 74.4962C164.989 79.2925 164.989 87.0979 160.318 91.8948ZM237.929 91.3817L251.016 77.9411C251.934 76.9981 251.934 75.4624 251.016 74.5185C250.318 73.8024 249.591 73.1289 248.838 72.4966L242.38 79.1291C239.15 82.4461 237.61 86.9284 237.929 91.3817Z" fill="#464646"/>
<path d="M256.884 68.4911L257.959 67.4448L257.959 67.4447L256.884 68.4911ZM256.884 83.9668L255.809 82.9202L255.809 82.9204L256.884 83.9668ZM218.49 123.398L219.565 124.445L219.565 124.445L218.49 123.398ZM197.779 174.752L196.705 173.705L196.704 173.705L197.779 174.752ZM191.911 174.752L192.986 173.705L192.985 173.705L191.911 174.752ZM191.911 168.724L192.986 169.771L192.986 169.771L191.911 168.724ZM212.622 117.371L211.547 116.325L212.622 117.371ZM231.002 98.494L232.077 99.5405L232.727 98.8723L232.416 97.9932L231.002 98.494ZM236.511 73.1002L235.436 72.0538L236.511 73.1002ZM241.468 68.0085L242.543 69.0549L244.084 67.4719L242.044 66.6235L241.468 68.0085ZM210.295 74.5172L209.22 73.4708L210.295 74.5172ZM179.891 105.743L178.817 104.696L178.816 104.697L179.891 105.743ZM174.023 105.743L175.098 104.696L175.098 104.696L174.023 105.743ZM174.023 99.7156L175.098 100.762V100.762L174.023 99.7156ZM179.449 94.1427L180.524 95.1891L181.543 94.1427L180.524 93.0963L179.449 94.1427ZM171.879 86.3678L172.954 85.3214L170.842 83.1522L170.395 86.1468L171.879 86.3678ZM166.187 97.9216L165.112 96.8752L166.187 97.9216ZM144.794 102.729L145.327 101.327L143.365 100.58L143.294 102.678L144.794 102.729ZM138.88 116.731L137.806 115.685L138.88 116.731ZM125.233 122.804L125.18 121.305L123.125 121.377L123.821 123.312L125.233 122.804ZM120.566 144.776L121.641 145.823L121.641 145.822L120.566 144.776ZM106.226 150.876V149.376H106.226L106.226 150.876ZM91.887 144.777L90.8122 145.823H90.8122L91.887 144.777ZM33.4598 84.7697L32.385 85.8161L32.385 85.8161L33.4598 84.7697ZM18.4151 84.7697L17.3405 83.7232L17.3403 83.7234L18.4151 84.7697ZM18.4151 100.222L17.3403 101.268L17.3404 101.268L18.4151 100.222ZM30.9866 113.133L29.9119 114.179L30.9866 115.283L32.0613 114.179L30.9866 113.133ZM38.032 105.897L39.1067 106.943L39.1069 106.943L38.032 105.897ZM43.9005 105.897L42.8257 106.943L42.8259 106.944L43.9005 105.897ZM43.9005 111.924L44.9752 112.97L43.9005 111.924ZM36.855 119.16L35.7803 118.114L34.7614 119.16L35.7803 120.206L36.855 119.16ZM57.2689 140.126L56.1942 141.172L57.2689 142.276L58.3437 141.172L57.2689 140.126ZM64.3144 132.89L65.3891 133.936L65.3893 133.936L64.3144 132.89ZM70.1828 132.89L69.1081 133.936L69.1083 133.936L70.1828 132.89ZM70.1828 138.917L69.1081 137.871L70.1828 138.917ZM63.1374 146.153L62.0626 145.106L61.0438 146.153L62.0626 147.199L63.1374 146.153ZM72.9288 156.209L71.854 157.255L71.8542 157.256L72.9288 156.209ZM72.9288 162.236L71.854 161.19L71.8537 161.19L72.9288 162.236ZM67.0603 162.236L68.1351 161.19L68.135 161.19L67.0603 162.236ZM12.5467 106.249L11.472 107.295H11.472L12.5467 106.249ZM12.5472 78.7416L13.6219 79.788L13.622 79.788L12.5472 78.7416ZM39.3292 78.7416L40.4039 77.6952L39.3292 78.7416ZM58.5656 98.4981L57.4909 99.5445L59.603 101.714L60.0492 98.7192L58.5656 98.4981ZM64.2576 86.9443L63.1829 85.8979L63.1829 85.8979L64.2576 86.9443ZM79.1732 80.868L79.1298 82.3674L81.1211 82.425L80.6262 80.4954L79.1732 80.868ZM84.4259 60.804L83.3513 59.7575L83.3512 59.7576L84.4259 60.804ZM103.962 55.3946L103.571 56.8427L105.515 57.368L105.461 55.3545L103.962 55.3946ZM109.878 40.0904L108.803 39.0439L108.803 39.044L109.878 40.0904ZM138.558 40.0904L139.632 39.044L138.558 40.0904ZM185.319 88.1157L184.244 89.1621L185.319 90.2658L186.393 89.1621L185.319 88.1157ZM204.427 68.4911L205.502 69.5376L205.502 69.5375L204.427 68.4911ZM114.698 138.75L115.773 139.796L114.698 138.75ZM97.7561 138.75L96.6814 139.796L96.6814 139.796L97.7561 138.75ZM114.698 121.35L113.623 122.396L113.623 122.396L114.698 121.35ZM110.202 116.732L109.127 117.778L109.127 117.778L110.202 116.732ZM87.0683 92.9727L88.143 91.9263L88.143 91.9263L87.0683 92.9727ZM70.1262 92.9727L69.0515 91.9262L69.0515 91.9263L70.1262 92.9727ZM70.1232 110.37L69.0481 111.416L69.0485 111.416L70.1232 110.37ZM94.562 135.469L95.6373 134.423L95.6367 134.423L94.562 135.469ZM94.5649 135.472L93.4896 136.518L93.4902 136.519L94.5649 135.472ZM160.318 91.8948L159.243 90.8483L159.243 90.8484L160.318 91.8948ZM143.377 91.8948L142.302 92.9412L142.302 92.9413L143.377 91.8948ZM133.101 81.3418L134.176 80.2954L133.101 81.3418ZM127.233 81.3418L128.308 82.3883L128.308 82.3881L127.233 81.3418ZM127.233 87.3689L128.308 86.3225L128.308 86.3223L127.233 87.3689ZM133.012 93.3041L134.087 92.2577L133.012 93.3041ZM133.012 110.703L131.937 109.657L131.937 109.657L133.012 110.703ZM116.07 110.703L117.145 109.657L116.07 110.703ZM92.9366 86.9446L94.0114 85.8982H94.0113L92.9366 86.9446ZM90.2945 84.231L89.2197 85.2775H89.2198L90.2945 84.231ZM90.2945 66.8319L91.3691 67.8784L91.3692 67.8783L90.2945 66.8319ZM107.236 66.8319L108.311 65.7855L108.311 65.7853L107.236 66.8319ZM109.874 69.5409L111.001 68.5508L110.975 68.522L110.949 68.4945L109.874 69.5409ZM109.876 69.5433L111.005 68.5555L111.003 68.5531L109.876 69.5433ZM109.878 69.546L108.749 70.5338L108.777 70.5649L108.806 70.5945L109.878 69.546ZM109.881 69.548L110.956 68.5016L110.706 68.2451L110.368 68.1291L109.881 69.548ZM119.21 79.1286L120.284 78.0822L119.21 79.1286ZM125.078 79.1286L124.003 78.0822L124.003 78.0824L125.078 79.1286ZM125.078 73.1015L124.003 74.148H124.003L125.078 73.1015ZM115.744 63.5149L114.669 64.5608L114.669 64.5613L115.744 63.5149ZM115.747 46.1188L116.822 47.1652V47.1652L115.747 46.1188ZM132.688 46.1188L131.614 47.1651L131.614 47.1652L132.688 46.1188ZM160.319 74.4962L159.244 75.5426L159.244 75.5426L160.319 74.4962ZM251.016 77.9411L252.09 78.9875V78.9875L251.016 77.9411ZM237.929 91.3817L236.433 91.4889L236.672 94.8231L239.004 92.4281L237.929 91.3817ZM251.016 74.5185L252.092 73.4729L252.091 73.4717L251.016 74.5185ZM248.838 72.4966L249.803 71.3479L248.735 70.4518L247.763 71.4502L248.838 72.4966ZM242.38 79.1291L243.455 80.1756L243.455 80.1755L242.38 79.1291ZM257.959 67.4447C250.675 59.9638 240.974 55.8332 230.656 55.8332V58.8332C240.152 58.8332 249.081 62.6278 255.809 69.5375L257.959 67.4447ZM257.958 85.0135C262.681 80.1654 262.68 72.2946 257.959 67.4448L255.809 69.5375C259.397 73.2228 259.397 79.2372 255.809 82.9202L257.958 85.0135ZM219.565 124.445L257.958 85.0133L255.809 82.9204L217.416 122.352L219.565 124.445ZM210.85 146.061C210.85 137.885 213.947 130.214 219.565 124.445L217.416 122.352C211.244 128.689 207.85 137.115 207.85 146.061H210.85ZM198.854 175.798C206.592 167.85 210.85 157.284 210.85 146.061H207.85C207.85 156.514 203.889 166.326 196.705 173.705L198.854 175.798ZM194.845 177.5C196.301 177.5 197.755 176.928 198.854 175.798L196.704 173.705C196.184 174.24 195.513 174.5 194.845 174.5V177.5ZM190.836 175.798C191.936 176.928 193.389 177.5 194.845 177.5V174.5C194.178 174.5 193.506 174.24 192.986 173.705L190.836 175.798ZM190.836 167.678C188.648 169.925 188.648 173.552 190.836 175.798L192.985 173.705C191.932 172.623 191.932 170.853 192.986 169.771L190.836 167.678ZM199.551 146.062C199.551 154.237 196.453 161.908 190.836 167.678L192.986 169.771C199.156 163.433 202.551 155.007 202.551 146.062H199.551ZM211.547 116.325C203.809 124.272 199.551 134.838 199.551 146.062H202.551C202.551 135.608 206.512 125.796 213.697 118.417L211.547 116.325ZM229.927 97.4476L211.547 116.325L213.697 118.417L232.077 99.5405L229.927 97.4476ZM235.436 72.0538C228.46 79.2187 226.293 89.6931 229.588 98.9948L232.416 97.9932C229.495 89.7467 231.421 80.4772 237.585 74.1467L235.436 72.0538ZM240.394 66.9621L235.436 72.0538L237.585 74.1467L242.543 69.0549L240.394 66.9621ZM230.655 67.3557C234.224 67.3557 237.684 68.0592 240.892 69.3935L242.044 66.6235C238.473 65.1381 234.621 64.3557 230.655 64.3557V67.3557ZM211.37 75.5636C216.53 70.2636 223.375 67.3557 230.655 67.3557V64.3557C222.553 64.3557 214.937 67.5997 209.22 73.4708L211.37 75.5636ZM180.966 106.789L211.37 75.5636L209.22 73.4708L178.817 104.696L180.966 106.789ZM176.957 108.491C178.413 108.491 179.867 107.919 180.966 106.789L178.816 104.697C178.296 105.231 177.625 105.491 176.957 105.491V108.491ZM172.948 106.789C174.048 107.918 175.501 108.491 176.957 108.491V105.491C176.29 105.491 175.618 105.231 175.098 104.696L172.948 106.789ZM172.948 98.6692C170.761 100.916 170.76 104.543 172.948 106.789L175.098 104.696C174.044 103.614 174.044 101.844 175.098 100.762L172.948 98.6692ZM178.374 93.0963L172.948 98.6692L175.098 100.762L180.524 95.1891L178.374 93.0963ZM170.804 87.4142L178.374 95.1891L180.524 93.0963L172.954 85.3214L170.804 87.4142ZM167.262 98.968C170.659 95.4787 172.688 91.1149 173.363 86.5889L170.395 86.1468C169.809 90.0838 168.048 93.8603 165.112 96.8752L167.262 98.968ZM151.847 105.522C157.675 105.522 163.154 103.187 167.262 98.968L165.112 96.8752C161.56 100.523 156.853 102.522 151.847 102.522V105.522ZM144.26 104.131C146.658 105.042 149.217 105.522 151.847 105.522V102.522C149.584 102.522 147.386 102.11 145.327 101.327L144.26 104.131ZM139.955 117.777C144.005 113.618 146.11 108.22 146.293 102.779L143.294 102.678C143.135 107.417 141.304 112.092 137.806 115.685L139.955 117.777ZM125.285 124.303C130.618 124.118 135.9 121.942 139.955 117.777L137.806 115.685C134.306 119.279 129.765 121.146 125.18 121.305L125.285 124.303ZM121.641 145.822C127.837 139.459 129.488 130.204 126.644 122.297L123.821 123.312C126.297 130.198 124.844 138.232 119.491 143.73L121.641 145.822ZM106.226 152.376C112.054 152.376 117.533 150.041 121.641 145.823L119.491 143.73C115.939 147.377 111.232 149.376 106.226 149.376V152.376ZM90.8122 145.823C94.9203 150.042 100.399 152.377 106.227 152.376L106.226 149.376C101.221 149.377 96.5138 147.378 92.9617 143.73L90.8122 145.823ZM32.385 85.8161L90.8122 145.823L92.9617 143.73L34.5345 83.7233L32.385 85.8161ZM19.4898 85.8162C23.0493 82.1608 28.8266 82.161 32.385 85.8161L34.5345 83.7233C29.7983 78.8585 22.0776 78.8586 17.3405 83.7232L19.4898 85.8162ZM16.7996 92.4954C16.7996 89.9624 17.7579 87.5954 19.49 85.816L17.3403 83.7234C15.0551 86.071 13.7996 89.1921 13.7996 92.4954H16.7996ZM19.49 99.1753C17.7574 97.3954 16.7996 95.0289 16.7996 92.4954H13.7996C13.7996 95.7991 15.0545 98.9197 17.3403 101.268L19.49 99.1753ZM32.0613 112.086L19.4899 99.1751L17.3404 101.268L29.9119 114.179L32.0613 112.086ZM36.9573 104.851L29.9119 112.086L32.0613 114.179L39.1067 106.943L36.9573 104.851ZM44.9752 104.851C42.7656 102.581 39.1664 102.581 36.9572 104.851L39.1069 106.943C40.1382 105.884 41.7937 105.883 42.8257 106.943L44.9752 104.851ZM44.9752 112.97C47.1629 110.724 47.1631 107.097 44.975 104.85L42.8259 106.944C43.8793 108.025 43.8796 109.795 42.8257 110.878L44.9752 112.97ZM37.9297 120.206L44.9752 112.97L42.8257 110.878L35.7803 118.114L37.9297 120.206ZM58.3437 139.079L37.9297 118.114L35.7803 120.206L56.1942 141.172L58.3437 139.079ZM63.2397 131.843L56.1942 139.079L58.3437 141.172L65.3891 133.936L63.2397 131.843ZM71.2575 131.843C69.048 129.574 65.4488 129.574 63.2395 131.844L65.3893 133.936C66.4206 132.877 68.0761 132.876 69.1081 133.936L71.2575 131.843ZM71.2575 139.963C73.4453 137.716 73.4455 134.09 71.2574 131.843L69.1083 133.936C70.1617 135.018 70.1619 136.788 69.1081 137.871L71.2575 139.963ZM64.2121 147.199L71.2575 139.963L69.1081 137.871L62.0626 145.106L64.2121 147.199ZM74.0035 155.163L64.2121 145.106L62.0626 147.199L71.854 157.255L74.0035 155.163ZM74.0035 163.282C76.1912 161.036 76.1914 157.409 74.0033 155.162L71.8542 157.256C72.9076 158.337 72.9079 160.107 71.854 161.19L74.0035 163.282ZM69.9945 164.985C71.4508 164.985 72.9042 164.412 74.0038 163.282L71.8537 161.19C71.3335 161.725 70.6622 161.985 69.9945 161.985V164.985ZM65.9856 163.282C67.0848 164.411 68.5379 164.985 69.9945 164.985V161.985C69.3273 161.985 68.6556 161.724 68.1351 161.19L65.9856 163.282ZM11.472 107.295L65.9856 163.282L68.135 161.19L13.6214 105.202L11.472 107.295ZM5.5 92.4954C5.5 98.0763 7.61822 103.337 11.472 107.295L13.6214 105.202C10.3211 101.813 8.5 97.3061 8.5 92.4954H5.5ZM11.4725 77.6952C7.61821 81.6537 5.5 86.9155 5.5 92.4954H8.5C8.5 87.6857 10.3211 83.1781 13.6219 79.788L11.4725 77.6952ZM40.4039 77.6952C32.4311 69.5069 19.4448 69.5068 11.4725 77.6952L13.622 79.788C20.4165 72.8093 31.4593 72.8092 38.2544 79.788L40.4039 77.6952ZM59.6403 97.4517L40.4039 77.6952L38.2544 79.788L57.4909 99.5445L59.6403 97.4517ZM63.1829 85.8979C59.7854 89.3872 57.7564 93.751 57.0819 98.277L60.0492 98.7192C60.6358 94.7821 62.3968 91.0056 65.3323 87.9908L63.1829 85.8979ZM79.2166 79.3687C73.4272 79.2011 67.5849 81.3774 63.1829 85.8979L65.3322 87.9908C69.13 84.0909 74.1529 82.2234 79.1298 82.3674L79.2166 79.3687ZM83.3512 59.7576C77.6801 65.582 75.8192 73.8285 77.7202 81.2407L80.6262 80.4954C78.9694 74.0356 80.6021 66.8814 85.5006 61.8504L83.3512 59.7576ZM98.7654 53.2034C92.9375 53.2034 87.4598 55.5385 83.3513 59.7575L85.5006 61.8505C89.0533 58.2022 93.7597 56.2034 98.7654 56.2034V53.2034ZM104.353 53.9465C102.552 53.46 100.678 53.2034 98.7654 53.2034V56.2034C100.409 56.2034 102.02 56.4237 103.571 56.8427L104.353 53.9465ZM108.803 39.044C104.408 43.5584 102.304 49.5313 102.462 55.4347L105.461 55.3545C105.324 50.2095 107.157 45.0357 110.953 41.1368L108.803 39.044ZM139.632 39.044C131.137 30.3186 117.3 30.3187 108.803 39.0439L110.953 41.1369C118.272 33.621 130.165 33.6211 137.483 41.1368L139.632 39.044ZM186.393 87.0692L139.632 39.044L137.483 41.1368L184.244 89.1621L186.393 87.0692ZM203.352 67.4447L184.244 87.0692L186.393 89.1621L205.502 69.5376L203.352 67.4447ZM230.656 55.8332C220.337 55.8332 210.636 59.9638 203.352 67.4447L205.502 69.5375C212.229 62.6278 221.158 58.8332 230.656 58.8332V55.8332ZM113.623 137.703C109.542 141.896 102.913 141.896 98.8307 137.703L96.6814 139.796C101.941 145.198 110.513 145.198 115.773 139.796L113.623 137.703ZM113.623 122.396C117.727 126.611 117.727 133.488 113.623 137.703L115.773 139.796C121.011 134.416 121.011 125.682 115.772 120.303L113.623 122.396ZM109.127 117.778L113.623 122.396L115.772 120.303L111.276 115.685L109.127 117.778ZM85.9936 94.0191L109.127 117.778L111.276 115.685L88.143 91.9263L85.9936 94.0191ZM71.2009 94.0192C75.2832 89.8269 81.9119 89.827 85.9936 94.0191L88.143 91.9263C82.8835 86.5246 74.3115 86.5246 69.0515 91.9262L71.2009 94.0192ZM71.1983 109.324C67.0973 105.109 67.0978 98.2332 71.2009 94.0191L69.0515 91.9263C63.8144 97.305 63.8139 106.036 69.0481 111.416L71.1983 109.324ZM95.6367 134.423L71.1979 109.323L69.0485 111.416L93.4872 136.516L95.6367 134.423ZM95.6403 134.427L95.6373 134.423L93.4866 136.515L93.4896 136.518L95.6403 134.427ZM98.8308 137.703L95.6396 134.426L93.4902 136.519L96.6814 139.796L98.8308 137.703ZM151.848 96.998C155.458 96.998 158.852 95.5507 161.393 92.9412L159.243 90.8484C157.259 92.8866 154.636 93.998 151.848 93.998V96.998ZM142.302 92.9413C144.843 95.5501 148.237 96.998 151.848 96.998V93.998C149.059 93.998 146.436 92.8861 144.451 90.8483L142.302 92.9413ZM132.027 82.3883L142.302 92.9412L144.451 90.8484L134.176 80.2954L132.027 82.3883ZM128.308 82.3881C129.339 81.3286 130.995 81.3283 132.027 82.3883L134.176 80.2954C131.967 78.0261 128.367 78.0259 126.158 80.2956L128.308 82.3881ZM128.308 86.3223C127.254 85.2407 127.254 83.4706 128.308 82.3883L126.158 80.2954C123.971 82.5423 123.97 86.1689 126.158 88.4155L128.308 86.3223ZM134.087 92.2577L128.308 86.3225L126.158 88.4153L131.937 94.3505L134.087 92.2577ZM134.087 111.75C139.324 106.371 139.324 97.6369 134.087 92.2577L131.937 94.3505C136.041 98.5651 136.041 105.443 131.937 109.657L134.087 111.75ZM114.995 111.75C120.255 117.152 128.827 117.152 134.087 111.75L131.937 109.657C127.855 113.849 121.227 113.85 117.145 109.657L114.995 111.75ZM91.8619 87.9911L114.995 111.75L117.145 109.657L94.0114 85.8982L91.8619 87.9911ZM89.2198 85.2775L91.8619 87.9911L94.0113 85.8982L91.3692 83.1846L89.2198 85.2775ZM89.2198 65.7854C83.982 71.1642 83.9821 79.8982 89.2197 85.2775L91.3692 83.1846C87.2656 78.9701 87.2657 72.0923 91.3691 67.8784L89.2198 65.7854ZM98.765 61.7286C95.1546 61.7286 91.7605 63.176 89.2198 65.7855L91.3692 67.8783C93.3537 65.8401 95.9763 64.7286 98.765 64.7286V61.7286ZM108.311 65.7853C105.77 63.1766 102.376 61.7286 98.765 61.7286V64.7286C101.554 64.7286 104.177 65.8405 106.161 67.8784L108.311 65.7853ZM110.949 68.4945L108.311 65.7855L106.161 67.8783L108.799 70.5873L110.949 68.4945ZM111.003 68.5531L111.001 68.5508L108.747 70.531L108.749 70.5334L111.003 68.5531ZM111.007 68.5582L111.005 68.5555L108.747 70.531L108.749 70.5338L111.007 68.5582ZM110.368 68.1291C110.56 68.1951 110.703 68.2878 110.795 68.3589C110.842 68.3952 110.879 68.4285 110.906 68.4537C110.932 68.4778 110.952 68.4986 110.951 68.4975L108.806 70.5945C108.805 70.5937 108.825 70.6148 108.851 70.6392C108.878 70.6648 108.916 70.6985 108.964 70.7351C109.057 70.807 109.201 70.9005 109.395 70.967L110.368 68.1291ZM120.284 78.0822L110.956 68.5016L108.807 70.5945L118.135 80.175L120.284 78.0822ZM124.003 78.0824C122.972 79.1419 121.316 79.1421 120.284 78.0822L118.135 80.175C120.344 82.4443 123.944 82.4446 126.153 80.1749L124.003 78.0824ZM124.003 74.148C125.057 75.2302 125.057 77 124.003 78.0822L126.153 80.175C128.341 77.9281 128.341 74.3021 126.153 72.0551L124.003 74.148ZM114.669 64.5613L124.003 74.148L126.153 72.0551L116.818 62.4684L114.669 64.5613ZM114.672 45.0723C109.436 50.4505 109.435 59.1811 114.669 64.5608L116.819 62.4689C112.718 58.2539 112.719 51.3788 116.822 47.1652L114.672 45.0723ZM133.763 45.0724C128.504 39.6706 119.932 39.6707 114.672 45.0723L116.822 47.1652C120.904 42.973 127.532 42.9731 131.614 47.1651L133.763 45.0724ZM161.393 73.4497L133.763 45.0723L131.614 47.1652L159.244 75.5426L161.393 73.4497ZM161.393 92.9413C166.631 87.562 166.631 78.8285 161.393 73.4497L159.244 75.5426C163.347 79.7566 163.348 86.6338 159.243 90.8483L161.393 92.9413ZM249.941 76.8946L236.854 90.3353L239.004 92.4281L252.09 78.9875L249.941 76.8946ZM249.941 75.564C250.293 75.9261 250.292 76.5344 249.941 76.8946L252.09 78.9875C253.576 77.4619 253.575 74.9988 252.092 73.4729L249.941 75.564ZM247.873 73.6453C248.589 74.2463 249.28 74.8858 249.942 75.5653L252.091 73.4717C251.357 72.719 250.593 72.0116 249.803 71.3479L247.873 73.6453ZM243.455 80.1755L249.913 73.543L247.763 71.4502L241.305 78.0827L243.455 80.1755ZM239.425 91.2745C239.135 87.234 240.533 83.1757 243.455 80.1756L241.305 78.0826C237.767 81.7165 236.084 86.6228 236.433 91.4889L239.425 91.2745Z" fill="#464646"/>
</svg>
