<svg width="200" height="200" viewBox="0 0 200 200" fill="none" xmlns="http://www.w3.org/2000/svg">
<rect width="200" height="200" fill="#F2F2F2"/>
<rect width="200" height="200" fill="white"/>
<path d="M105.363 158.449L67.57 120.655C66.5289 119.614 64.8412 119.614 63.8004 120.655C62.7592 121.696 62.7592 123.384 63.8004 124.425L101.594 162.219C102.114 162.74 102.797 163 103.479 163C104.161 163 104.843 162.74 105.363 162.219C106.405 161.178 106.405 159.49 105.363 158.449Z" fill="#9AD187"/>
<path fill-rule="evenodd" clip-rule="evenodd" d="M162.667 52.5938C169.032 52.5938 175.015 55.0722 179.515 59.5725C182.184 62.2416 182.184 66.5839 179.515 69.2518L154.853 93.9141C151.066 97.7002 148.982 102.734 148.982 108.089C148.982 114.867 146.342 121.24 141.549 126.033C141.029 126.554 140.346 126.814 139.664 126.814C138.982 126.814 138.3 126.554 137.779 126.033C136.738 124.992 136.738 123.305 137.779 122.263C141.565 118.477 143.651 113.443 143.651 108.089C143.651 101.31 146.29 94.9374 151.083 90.1444L162.89 78.3378C160.894 72.85 162.208 66.6756 166.428 62.4552L169.613 59.2706C167.436 58.3888 165.087 57.9241 162.667 57.9241C157.726 57.9241 153.082 59.848 149.589 63.3415L130.059 82.8715C129.538 83.392 128.856 83.6523 128.174 83.6523C127.492 83.6523 126.809 83.3917 126.289 82.8715C125.248 81.8307 125.248 80.143 126.289 79.1018L129.774 75.6163L124.912 70.7535C124.507 73.4001 123.289 75.9458 121.255 77.9798C118.795 80.4401 115.524 81.7954 112.044 81.7954C110.472 81.7954 108.944 81.5164 107.513 80.9863C107.403 84.1697 106.139 87.3197 103.715 89.7442C101.288 92.1705 98.1334 93.4348 94.9479 93.5427C96.6565 98.1687 95.6595 103.576 91.9502 107.285C89.4899 109.745 86.2186 111.1 82.7391 111.1C79.2596 111.101 75.9883 109.745 73.528 107.285L35.9967 69.7539C33.3326 67.0895 28.9973 67.0895 26.3326 69.7539C25.0423 71.0445 24.3313 72.7608 24.3313 74.5859C24.3313 76.4114 25.042 78.1274 26.3326 79.4183L34.408 87.4937L38.9337 82.968C39.9745 81.9268 41.6622 81.9268 42.7034 82.968C43.7445 84.0088 43.7445 85.6965 42.7034 86.7376L38.1777 91.2633L51.2907 104.376L55.8165 99.8507C56.8573 98.8096 58.545 98.8096 59.5861 99.8507C60.6272 100.891 60.6272 102.579 59.5861 103.62L55.0604 108.146L61.35 114.436C62.3911 115.476 62.3911 117.164 61.35 118.205C60.8297 118.726 60.1473 118.986 59.4652 118.986C58.783 118.986 58.1006 118.726 57.5803 118.205L22.563 83.1879C20.2652 80.8902 19 77.8357 19 74.5859C19 71.3369 20.2652 68.2817 22.5633 65.9837C27.3061 61.2405 35.0238 61.2405 39.767 65.9837L52.1236 78.3403C52.5287 75.6937 53.746 73.1481 55.78 71.114C58.4136 68.4808 61.9032 67.2162 65.3612 67.3136C64.2185 62.9755 65.3405 58.1593 68.7353 54.7646C71.1959 52.3043 74.4669 50.9489 77.9464 50.9489C79.0888 50.9489 80.208 51.0981 81.2844 51.3812C81.1895 47.9262 82.4537 44.4403 85.0848 41.8092C90.1644 36.7303 98.4283 36.7303 103.507 41.8092L133.545 71.8466L145.819 59.5725C150.319 55.0722 156.303 52.5938 162.667 52.5938ZM77.2979 103.516C80.2985 106.516 85.1807 106.516 88.1809 103.516C91.1811 100.515 91.1811 95.6329 88.1806 92.6327L85.2924 89.7445L70.4325 74.8843C67.4323 71.8841 62.5501 71.8841 59.5496 74.8843C56.5497 77.8842 56.5494 82.7648 59.5477 85.7654L75.2462 101.464L75.2481 101.466L77.2979 103.516ZM117.485 74.2104C116.032 75.6639 114.1 76.4641 112.044 76.4641C109.989 76.4641 108.056 75.6636 106.603 74.2104L100.002 67.6101C98.9613 66.569 97.2736 66.569 96.2328 67.6101C95.1917 68.6512 95.1917 70.3389 96.2328 71.3797L99.945 75.0919C102.945 78.0921 102.945 82.9743 99.945 85.9742C96.9447 88.9747 92.0626 88.9747 89.062 85.9742L74.2022 71.1144L72.505 69.4171C69.5048 66.4169 69.5048 61.5347 72.505 58.5348C73.9584 57.0814 75.8909 56.2812 77.9461 56.2812C80.0017 56.2812 81.9341 57.0817 83.3876 58.5348L85.082 60.2292L85.0848 60.2324C85.0851 60.2327 85.0858 60.2333 85.0867 60.2337L91.0789 66.2258C92.12 67.267 93.8077 67.267 94.8485 66.2258C95.8897 65.1847 95.8897 63.4973 94.8485 62.4562L88.8525 56.4602C85.8545 53.4597 85.8552 48.5794 88.8548 45.5798C91.855 42.5796 96.7372 42.5796 99.7371 45.5798L117.486 63.3285C120.486 66.3284 120.486 71.2102 117.485 74.2104ZM167.339 73.8892L175.746 65.4828C176.336 64.893 176.336 63.9325 175.746 63.3421C175.298 62.8942 174.831 62.473 174.347 62.0775L170.199 66.2258C168.124 68.3005 167.134 71.1039 167.339 73.8892Z" fill="#9AD187"/>
</svg>
