<svg width="200" height="200" viewBox="0 0 200 200" fill="none" xmlns="http://www.w3.org/2000/svg">
<rect width="200" height="200" fill="#F2F2F2"/>
<rect width="200" height="200" fill="white"/>
<path fill-rule="evenodd" clip-rule="evenodd" d="M99.5 146C124.629 146 145 125.405 145 100C145 74.5949 124.629 54 99.5 54C74.371 54 54 74.5949 54 100C54 125.405 74.371 146 99.5 146Z" fill="#68C7C9"/>
<path fill-rule="evenodd" clip-rule="evenodd" d="M98.5408 75.5203C96.8839 75.5203 95.5408 76.8634 95.5408 78.5203V96.5405H77.5205C75.8637 96.5405 74.5205 97.8837 74.5205 99.5405V100.959C74.5205 102.616 75.8637 103.959 77.5205 103.959H95.5408V121.98C95.5408 123.637 96.8839 124.98 98.5408 124.98H99.9597C101.617 124.98 102.96 123.637 102.96 121.98V103.959H120.98C122.637 103.959 123.98 102.616 123.98 100.959V99.5405C123.98 97.8837 122.637 96.5405 120.98 96.5405H102.96V78.5203C102.96 76.8634 101.617 75.5203 99.9597 75.5203H98.5408Z" fill="#D8D8D8"/>
</svg>
