<svg width="151" height="429" viewBox="0 0 151 429" fill="none" xmlns="http://www.w3.org/2000/svg">
<rect width="151" height="429" fill="#F2F2F2"/>
<rect width="151" height="429" fill="white"/>
<path d="M96.462 58.374C96.462 63.9953 95.1187 68.3353 92.432 71.394C89.7453 74.494 85.9427 76.044 81.024 76.044C75.8573 76.044 71.848 74.494 68.996 71.394C66.144 68.3353 64.718 63.9953 64.718 58.374L64.656 51.554L53 51.554L53 38.658L96.462 38.658L96.462 58.374ZM74.638 57.754C74.638 59.6967 75.1547 61.1847 76.188 62.218C77.2213 63.2927 78.7093 63.83 80.652 63.83C82.5533 63.83 84 63.2927 84.992 62.218C86.0253 61.1847 86.542 59.6967 86.542 57.754L86.542 51.554L74.638 51.554L74.638 57.754ZM97.268 103.116C97.268 107.58 96.2967 111.61 94.354 115.206C92.4113 118.844 89.7247 121.675 86.294 123.7C82.9047 125.767 79.0813 126.8 74.824 126.8C70.5253 126.8 66.64 125.767 63.168 123.7C59.7373 121.675 57.03 118.844 55.046 115.206C53.1033 111.61 52.132 107.58 52.132 103.116C52.132 98.6108 53.1033 94.5602 55.046 90.9642C57.03 87.3682 59.7373 84.5368 63.168 82.4702C66.64 80.4448 70.5253 79.4322 74.824 79.4322C79.0813 79.4322 82.9047 80.4448 86.294 82.4702C89.7247 84.5368 92.4113 87.3682 94.354 90.9642C96.2967 94.5602 97.268 98.6108 97.268 103.116ZM86.542 103.302C86.542 101.401 86.0253 99.6235 84.992 97.9702C83.9587 96.3582 82.5327 95.0562 80.714 94.0642C78.9367 93.1135 76.9527 92.6382 74.762 92.6382C72.5713 92.6382 70.5667 93.1135 68.748 94.0642C66.9293 95.0562 65.4827 96.3582 64.408 97.9702C63.3747 99.6235 62.858 101.401 62.858 103.302C62.858 105.162 63.3747 106.878 64.408 108.448C65.4827 110.06 66.9087 111.321 68.686 112.23C70.5047 113.14 72.53 113.594 74.762 113.594C76.9527 113.594 78.9367 113.14 80.714 112.23C82.5327 111.321 83.9587 110.081 84.992 108.51C86.0253 106.94 86.542 105.204 86.542 103.302ZM53 158.035L64.718 152.269L64.718 145.449L53 145.449L53 132.553L96.462 132.553L96.462 152.827C96.462 158.655 95.1187 163.16 92.432 166.343C89.7453 169.567 85.9427 171.179 81.024 171.179C77.8413 171.179 75.072 170.538 72.716 169.257C70.4013 168.017 68.562 166.219 67.198 163.863L53 172.667L53 158.035ZM74.638 145.449L74.638 152.827C74.638 154.77 75.1547 156.258 76.188 157.291C77.2213 158.366 78.7093 158.903 80.652 158.903C82.5533 158.903 84 158.366 84.992 157.291C86.0253 156.258 86.542 154.77 86.542 152.827L86.542 145.449L74.638 145.449ZM96.462 175.125L96.462 213.317L86.17 213.317L86.17 200.669L53 200.669L53 187.711L86.17 187.711L86.17 175.125L96.462 175.125ZM70.98 230.488C68.5413 230.488 66.578 231.191 65.09 232.596C63.602 234.002 62.858 235.758 62.858 237.866C62.858 239.933 63.5813 241.628 65.028 242.95C66.516 244.273 68.5 244.934 70.98 244.934L96.462 244.934L96.462 257.83L70.98 257.83C67.1773 257.83 63.85 257.004 60.998 255.35C58.1873 253.738 55.9967 251.424 54.426 248.406C52.8967 245.389 52.132 241.876 52.132 237.866C52.132 233.816 52.8967 230.261 54.426 227.202C55.9967 224.144 58.1873 221.767 60.998 220.072C63.85 218.419 67.1773 217.592 70.98 217.592L96.462 217.592L96.462 230.488L70.98 230.488ZM75.506 293.799L75.506 304.897L57.836 304.897C56.1827 302.541 54.8187 299.627 53.744 296.155C52.6693 292.683 52.132 289.397 52.132 286.297C52.132 281.875 53.1033 277.886 55.046 274.331C57.03 270.777 59.7373 267.987 63.168 265.961C66.5987 263.936 70.4633 262.923 74.762 262.923C79.0193 262.923 82.8633 263.957 86.294 266.023C89.7247 268.131 92.4113 271.025 94.354 274.703C96.2967 278.423 97.268 282.577 97.268 287.165C97.268 290.472 96.6687 293.779 95.47 297.085C94.2713 300.392 92.6387 303.203 90.572 305.517L81.768 298.201C83.2147 296.713 84.372 294.957 85.24 292.931C86.108 290.947 86.542 289.005 86.542 287.103C86.542 285.037 86.0253 283.156 84.992 281.461C83.9587 279.808 82.5327 278.506 80.714 277.555C78.9367 276.605 76.9527 276.129 74.762 276.129C72.53 276.129 70.5047 276.605 68.686 277.555C66.8673 278.547 65.4413 279.891 64.408 281.585C63.3747 283.28 62.858 285.161 62.858 287.227C62.858 289.087 63.4573 291.278 64.656 293.799L75.506 293.799ZM53 344.036L59.944 341.494L59.944 323.948L53 321.344L53 308.076L96.462 326.614L96.462 339.882L53 357.8L53 344.036ZM69.368 327.544L69.368 338.084L83.566 332.876L69.368 327.544ZM96.462 361.902L96.462 374.798L63.788 374.798L63.788 393.026L53 393.026L53 361.902L96.462 361.902Z" fill="white"/>
</svg>
