<svg width="151" height="429" viewBox="0 0 151 429" fill="none" xmlns="http://www.w3.org/2000/svg">
<rect width="151" height="429" fill="#F2F2F2"/>
<rect width="151" height="429" fill="white"/>
<path d="M82.45 70.906C83.814 68.5913 84.9713 66.0493 85.922 63.28C86.8727 60.5107 87.348 58.2373 87.348 56.46C87.348 55.344 87.1207 54.4553 86.666 53.794C86.2527 53.174 85.6327 52.864 84.806 52.864C83.6487 52.864 82.7393 53.484 82.078 54.724C81.458 55.964 80.776 57.9273 80.032 60.614C79.164 63.6727 78.2753 66.194 77.366 68.178C76.498 70.162 75.1547 71.8773 73.336 73.324C71.5173 74.812 69.12 75.556 66.144 75.556C63.1267 75.556 60.564 74.75 58.456 73.138C56.3893 71.5673 54.8393 69.418 53.806 66.69C52.7727 64.0033 52.256 60.986 52.256 57.638C52.256 53.918 52.876 50.1773 54.116 46.416C55.3973 42.696 57.1333 39.472 59.324 36.744L69.12 41.58C67.2187 43.7707 65.6067 46.4367 64.284 49.578C63.0027 52.7607 62.362 55.4887 62.362 57.762C62.362 59.1673 62.6307 60.2627 63.168 61.048C63.7053 61.8333 64.47 62.226 65.462 62.226C66.6607 62.226 67.57 61.5853 68.19 60.304C68.8513 59.0227 69.5333 57.0387 70.236 54.352C71.0213 51.3347 71.8273 48.834 72.654 46.85C73.522 44.866 74.8447 43.1507 76.622 41.704C78.3993 40.2573 80.7347 39.534 83.628 39.534C86.4387 39.534 88.8773 40.278 90.944 41.766C93.052 43.254 94.664 45.3413 95.78 48.028C96.896 50.756 97.454 53.918 97.454 57.514C97.454 60.7793 96.9787 64.024 96.028 67.248C95.1187 70.472 93.8993 73.2827 92.37 75.68L82.45 70.906ZM53 106.699L64.718 100.933L64.718 94.1129L53 94.1129L53 81.2169L96.462 81.2169L96.462 101.491C96.462 107.319 95.1187 111.824 92.432 115.007C89.7453 118.231 85.9427 119.843 81.024 119.843C77.8413 119.843 75.072 119.202 72.716 117.921C70.4013 116.681 68.562 114.883 67.198 112.527L53 121.331L53 106.699ZM74.638 94.1129L74.638 101.491C74.638 103.434 75.1547 104.922 76.188 105.955C77.2213 107.03 78.7093 107.567 80.652 107.567C82.5533 107.567 84 107.03 84.992 105.955C86.0253 104.922 86.542 103.434 86.542 101.491L86.542 94.1129L74.638 94.1129ZM96.462 127.075L96.462 139.971L53 139.971L53 127.075L96.462 127.075ZM96.462 162.239L96.462 175.135L63.788 175.135L63.788 193.363L53 193.363L53 162.239L96.462 162.239ZM53 230.639L59.944 228.097L59.944 210.551L53 207.947L53 194.679L96.462 213.217L96.462 226.485L53 244.403L53 230.639ZM69.368 214.147L69.368 224.687L83.566 219.479L69.368 214.147ZM96.462 277.955L96.462 289.735L53 289.735L53 278.761L77.18 260.347L53 260.347L53 248.505L96.462 248.505L96.462 259.541L72.22 277.955L96.462 277.955ZM53 341.334L53 325.896L68.996 315.728L63.664 310.892L53 310.892L53 297.996L96.462 297.996L96.462 310.892L79.04 310.892L96.462 325.462L96.462 340.342L78.854 324.532L53 341.334ZM53 377.9L59.944 375.358L59.944 357.812L53 355.208L53 341.94L96.462 360.478L96.462 373.746L53 391.664L53 377.9ZM69.368 361.408L69.368 371.948L83.566 366.74L69.368 361.408Z" fill="white"/>
</svg>
